<svg version="1.2" xmlns="http://www.w3.org/2000/svg" viewBox="0 0 396 395" width="396" height="395">
	<title>nodejs-svg</title>
	<style>
		.s0 { fill: #539e43 } 
	</style>
	<g id="Layer">
		<path id="Layer" fill-rule="evenodd" class="s0" d="m198 341.5c-4 0-7.7-1.1-11.1-3l-35.3-20.9c-5.3-2.9-2.6-4-1-4.5 7.1-2.4 8.4-2.9 15.9-7.1 0.8-0.6 1.8-0.3 2.6 0.2l27 16.2c1.1 0.5 2.4 0.5 3.2 0l105.8-61.2c1-0.6 1.6-1.6 1.6-2.9v-122.2c0-1.3-0.6-2.4-1.6-2.9l-105.8-61c-1-0.5-2.4-0.5-3.2 0l-105.7 61c-1.1 0.5-1.6 1.8-1.6 2.9v122.2c0 1 0.5 2.3 1.6 2.9l28.9 16.7c15.6 7.9 25.4-1.4 25.4-10.6v-120.6c0-1.6 1.4-3.2 3.2-3.2h13.5c1.6 0 3.2 1.3 3.2 3.2v120.6c0 20.9-11.4 33.1-31.3 33.1-6.1 0-10.8 0-24.3-6.6l-27.9-15.9c-6.9-4-11.1-11.4-11.1-19.4v-122.2c0-7.9 4.2-15.3 11.1-19.3l105.8-61.2c6.6-3.7 15.6-3.7 22.2 0l105.8 61.2c6.9 4 11.1 11.4 11.1 19.3v122.2c0 8-4.2 15.4-11.1 19.4l-105.8 61.2c-3.4 1.6-7.4 2.4-11.1 2.4zm32.6-84c-46.4 0-55.9-21.2-55.9-39.3 0-1.6 1.3-3.1 3.2-3.1h13.7c1.6 0 3 1 3 2.6 2.1 14 8.2 20.9 36.3 20.9 22.2 0 31.8-5 31.8-16.9 0-6.9-2.7-11.9-37.4-15.4-28.9-2.9-46.9-9.3-46.9-32.3 0-21.5 18-34.2 48.2-34.2 33.9 0 50.6 11.7 52.8 37.1q0 1.2-0.8 2.4c-0.6 0.5-1.4 1-2.2 1h-13.7c-1.4 0-2.7-1-3-2.3-3.1-14.6-11.3-19.4-33.1-19.4-24.4 0-27.3 8.5-27.3 14.8 0 7.7 3.5 10.1 36.3 14.4 32.6 4.2 48 10.3 48 33.1-0.3 23.3-19.3 36.6-53 36.6z"/>
	</g>
</svg>