<svg version="1.2" xmlns="http://www.w3.org/2000/svg" viewBox="0 0 98 98" width="98" height="98">
	<title>sql-database-svg</title>
	<style>
		.s0 { fill: #000000 } 
		.s1 { fill: #3e3ef4 } 
	</style>
	<g id="expanded">
		<path id="Layer" fill-rule="evenodd" class="s0" d="m67.3 26.3v28.7c0 0.4-0.2 0.8-0.5 1-0.2 0.3-0.6 0.5-1 0.5-0.4 0-0.8-0.2-1.1-0.5-0.3-0.2-0.4-0.6-0.4-1v-9.2c-4.5 2.7-13.2 4.1-21.8 4.1-8.7 0-17.4-1.4-21.9-4.1v10.3c0 3.4 15.6 5.5 22.7 5.3 0.4-0.1 0.8 0.1 1.1 0.4 0.3 0.2 0.4 0.6 0.4 1 0.1 0.4-0.1 0.8-0.4 1.1-0.2 0.3-0.6 0.4-1 0.5-6.1 0.2-17.4-0.9-22.8-4.1v10.3c0 4.4 16.2 6.4 23 6.2 0.4 0 0.7 0.1 1 0.4 0.3 0.3 0.5 0.7 0.5 1.1 0 0.3-0.1 0.7-0.4 1-0.3 0.3-0.7 0.5-1.1 0.5-7.7 0.2-26-1.6-26-9.2v-44.3c0-7.5 17.4-9.2 24.9-9.2 7.5 0 24.8 1.8 24.8 9.2zm-46.7 0c0 2.5 8.5 6.2 21.9 6.2 13.3 0 21.8-3.7 21.8-6.2 0-2.5-8.5-6.2-21.8-6.2-13.4 0-21.9 3.7-21.9 6.2zm43.7 4.6c-4.5 3-13.2 4.6-21.8 4.6-8.7 0-17.4-1.6-21.9-4.6v10.8c0.1 1.8 7.8 5.2 21.9 5.2 14.1 0 21.8-3.4 21.8-5.2v-0.1z"/>
		<g id="Layer">
			<path id="Layer" class="s1" d="m64.9 66.8c-0.9 0-1.8 0.4-2.4 1.1-0.6 0.8-0.9 1.7-0.7 2.7 0.2 0.9 0.8 1.7 1.7 2.2 0.8 0.4 1.8 0.5 2.7 0.1l-0.5-0.5c-0.2-0.2-0.4-0.6-0.4-0.9 0-0.3 0.2-0.6 0.4-0.9 0.2-0.2 0.5-0.3 0.9-0.3 0.3 0 0.6 0.1 0.9 0.3l0.4 0.5q0.1-0.2 0.1-0.3 0-0.1 0.1-0.3 0-0.1 0-0.3 0-0.1 0-0.2 0-0.7-0.2-1.3-0.3-0.5-0.7-1-0.5-0.4-1-0.7-0.6-0.2-1.3-0.2z"/>
			<path id="Layer" fill-rule="evenodd" class="s1" d="m78.2 59.2q0.6 0.3 1.1 0.8 0.5 0.5 0.8 1.1 0.3 0.7 0.3 1.4v14.9q0 0.7-0.3 1.4-0.3 0.6-0.8 1.1-0.5 0.5-1.1 0.8-0.6 0.2-1.3 0.2h-26q-0.7 0-1.4-0.2-0.6-0.3-1.1-0.8-0.5-0.5-0.8-1.1-0.2-0.7-0.2-1.4v-14.9q0-0.7 0.2-1.4 0.3-0.6 0.8-1.1 0.5-0.5 1.1-0.8 0.7-0.2 1.4-0.2h26q0.7 0 1.3 0.2zm-22.8 9.7c-1-0.4-2-0.9-2.3-1-0.3-0.3-0.2-0.8 0.4-1q0.3-0.1 0.6-0.1 0.3 0 0.6 0.1 0.3 0 0.6 0.2 0.3 0.1 0.5 0.3c0.3 0.2 0.6 0.3 0.9 0.3 0.4 0 0.7-0.2 0.9-0.5 0.2-0.2 0.3-0.5 0.3-0.9-0.1-0.3-0.2-0.6-0.5-0.8q-0.5-0.4-1-0.7-0.6-0.2-1.2-0.4-0.6-0.1-1.2-0.1-0.6 0-1.2 0.2c-3 0.9-3 4.7-0.9 5.6 0.1 0 1.3 0.6 2.7 1.1 0.3 0.1 1.2 0.5 1 1q0 0.3-0.2 0.4-0.1 0.2-0.3 0.3-0.2 0.1-0.4 0.2-0.2 0.1-0.5 0-0.3 0-0.6 0-0.3-0.1-0.5-0.2-0.3-0.1-0.6-0.3-0.2-0.2-0.4-0.4c-0.2-0.2-0.6-0.4-0.9-0.4-0.3 0-0.6 0.1-0.9 0.3-0.2 0.3-0.4 0.6-0.4 0.9 0 0.3 0.1 0.7 0.3 0.9q0.4 0.4 0.9 0.7 0.4 0.4 1 0.6 0.5 0.2 1 0.3 0.6 0.1 1.1 0.1 0.7 0.1 1.3-0.1 0.7-0.2 1.2-0.6 0.5-0.4 0.9-1 0.4-0.6 0.5-1.2c0.2-1.3-0.3-3-2.7-3.8zm15.2 5.9q0.1-0.2 0.1-0.5 0-0.2-0.1-0.4-0.1-0.3-0.3-0.4l-0.5-0.6c1.5-2.4 0.9-5.7-1.4-7.5-2.2-1.8-5.5-1.5-7.6 0.5-2 2.1-2.1 5.4-0.3 7.6 1.8 2.3 5.1 2.8 7.5 1.2l0.5 0.5q0.2 0.2 0.4 0.3 0.3 0.1 0.5 0.1 0.3 0 0.5-0.1 0.2-0.1 0.4-0.3 0.2-0.1 0.3-0.4zm6.8 0.5c0.3-0.3 0.4-0.6 0.4-0.9 0-0.4-0.1-0.7-0.4-0.9-0.2-0.2-0.5-0.4-0.8-0.4h-0.1c-0.5 0-1.2 0-1.8 0v-7.6c0-0.3-0.1-0.6-0.4-0.9-0.2-0.2-0.5-0.3-0.8-0.3-0.4 0-0.7 0.1-0.9 0.3-0.3 0.3-0.4 0.6-0.4 0.9v8.9q0 0.2 0.1 0.4 0.1 0.2 0.2 0.4 0.1 0.2 0.3 0.3 0.2 0.1 0.4 0.1c0.3 0.1 2.6 0 3.4 0 0.3 0 0.6-0.1 0.8-0.3z"/>
		</g>
	</g>
</svg>